<svg xmlns="http://www.w3.org/2000/svg" viewBox="0 0 56 40" role="img" aria-label="United States flag">
  <rect width="56" height="40" fill="#fff"/>
  <g fill="#bf1f2e">
    <rect y="0" width="56" height="3.08"/>
    <rect y="6.15" width="56" height="3.08"/>
    <rect y="12.31" width="56" height="3.08"/>
    <rect y="18.46" width="56" height="3.08"/>
    <rect y="24.62" width="56" height="3.08"/>
    <rect y="30.77" width="56" height="3.08"/>
    <rect y="36.92" width="56" height="3.08"/>
  </g>
  <rect width="24.64" height="21.54" fill="#1f438a"/>
  <g fill="#fff">
    <circle cx="4" cy="4" r="0.8"/>
    <circle cx="9" cy="4" r="0.8"/>
    <circle cx="14" cy="4" r="0.8"/>
    <circle cx="19" cy="4" r="0.8"/>
    <circle cx="6.5" cy="8" r="0.8"/>
    <circle cx="11.5" cy="8" r="0.8"/>
    <circle cx="16.5" cy="8" r="0.8"/>
    <circle cx="21.5" cy="8" r="0.8"/>
    <circle cx="4" cy="12" r="0.8"/>
    <circle cx="9" cy="12" r="0.8"/>
    <circle cx="14" cy="12" r="0.8"/>
    <circle cx="19" cy="12" r="0.8"/>
    <circle cx="6.5" cy="16" r="0.8"/>
    <circle cx="11.5" cy="16" r="0.8"/>
    <circle cx="16.5" cy="16" r="0.8"/>
    <circle cx="21.5" cy="16" r="0.8"/>
  </g>
</svg>
